<?xml version="1.0" encoding="iso-8859-1"?>
<!-- Generator: Adobe Illustrator 19.0.0, SVG Export Plug-In . SVG Version: 6.00 Build 0)  -->
<svg version="1.1" id="Layer_1" xmlns="http://www.w3.org/2000/svg" xmlns:xlink="http://www.w3.org/1999/xlink" x="0px" y="0px"
	 viewBox="0 0 512 512" style="enable-background:new 0 0 512 512;" xml:space="preserve">
<rect x="73.05" y="7.841" style="fill:#FFFFFF;" width="365.901" height="470.444"/>
<g>
	<rect x="73.008" y="7.841" style="fill:#B3D8F4;" width="365.901" height="83.635"/>
	<circle style="fill:#B3D8F4;" cx="255.963" cy="284.88" r="120.225"/>
</g>
<circle style="fill:#FFFFFF;" cx="255.963" cy="284.88" r="78.407"/>
<path style="fill:#3D9AE2;" d="M334.366,284.88c0,43.302-35.106,78.407-78.407,78.407s-78.407-35.106-78.407-78.407H334.366z"/>
<g>
	<circle style="fill:#FFFFFF;" cx="125.305" cy="49.658" r="15.681"/>
	<rect x="313.525" y="41.817" style="fill:#FFFFFF;" width="15.681" height="15.681"/>
	<rect x="386.705" y="41.817" style="fill:#FFFFFF;" width="15.681" height="15.681"/>
	<rect x="350.115" y="41.817" style="fill:#FFFFFF;" width="15.681" height="15.681"/>
</g>
<path d="M255.958,156.815c-70.616,0-128.065,57.45-128.065,128.065s57.45,128.065,128.065,128.065s128.065-57.45,128.065-128.065
	S326.573,156.815,255.958,156.815z M255.958,397.264c-61.969,0-112.384-50.415-112.384-112.384s50.415-112.384,112.384-112.384
	s112.384,50.415,112.384,112.384S317.926,397.264,255.958,397.264z"/>
<path d="M260.525,424.386l0.463,15.674c40.048-1.184,77.55-17.617,105.597-46.271l-11.207-10.969
	C330.184,408.561,296.497,423.322,260.525,424.386z"/>
<path d="M256.387,147.406v-15.681c-40.571,0-78.875,15.631-107.855,44.015l10.973,11.204
	C185.536,161.447,219.943,147.406,256.387,147.406z"/>
<path d="M65.209,0v486.126h381.582V0H65.209z M431.11,83.635H185.392V15.681H431.11V83.635z M169.71,15.681v67.953H80.89V15.681
	H169.71z M80.89,470.444V99.316h350.22v371.128H80.89z"/>
<path d="M255.958,198.632c-47.558,0-86.248,38.69-86.248,86.248s38.69,86.248,86.248,86.248s86.248-38.69,86.248-86.248
	S303.515,198.632,255.958,198.632z M255.958,214.313c36.26,0,66.206,27.493,70.12,62.726H185.837
	C189.751,241.806,219.698,214.313,255.958,214.313z M255.958,355.447c-36.26,0-66.206-27.493-70.12-62.726h140.241
	C322.164,327.954,292.217,355.447,255.958,355.447z"/>
<path d="M125.3,73.18c12.971,0,23.522-10.552,23.522-23.522S138.271,26.136,125.3,26.136s-23.522,10.552-23.522,23.522
	S112.33,73.18,125.3,73.18z M125.3,41.817c4.324,0,7.841,3.517,7.841,7.841s-3.517,7.841-7.841,7.841s-7.841-3.517-7.841-7.841
	S120.976,41.817,125.3,41.817z"/>
<rect x="93.953" y="496.319" width="52.272" height="15.681"/>
<rect x="365.765" y="496.319" width="52.272" height="15.681"/>
<g>
</g>
<g>
</g>
<g>
</g>
<g>
</g>
<g>
</g>
<g>
</g>
<g>
</g>
<g>
</g>
<g>
</g>
<g>
</g>
<g>
</g>
<g>
</g>
<g>
</g>
<g>
</g>
<g>
</g>
</svg>
