<?xml version="1.0" encoding="iso-8859-1"?>
<!-- Generator: Adobe Illustrator 19.0.0, SVG Export Plug-In . SVG Version: 6.00 Build 0)  -->
<svg version="1.1" id="Layer_1" xmlns="http://www.w3.org/2000/svg" xmlns:xlink="http://www.w3.org/1999/xlink" x="0px" y="0px"
	 viewBox="0 0 512 512" style="enable-background:new 0 0 512 512;" xml:space="preserve">
<rect x="58.525" style="fill:#DFDFE2;" width="394.951" height="512"/>
<rect x="58.525" y="103.037" style="fill:#00CFB4;" width="394.951" height="31.347"/>
<rect x="255.937" style="fill:#D7D6D9;" width="197.538" height="512"/>
<path style="fill:#00CFB4;" d="M256,174.081c-65.105,0-118.072,52.967-118.072,118.072S190.895,410.226,256,410.226
	s118.072-52.968,118.072-118.072C374.072,227.048,321.105,174.081,256,174.081z"/>
<g>
	<rect x="255.937" y="103.037" style="fill:#00AF94;" width="197.538" height="31.347"/>
	<path style="fill:#00AF94;" d="M374.073,292.153c0,65.108-52.966,118.073-118.073,118.073h-0.063V174.08H256
		C321.108,174.08,374.073,227.046,374.073,292.153z"/>
</g>
<path style="fill:#57555C;" d="M256,199.576c-51.47,0-93.344,41.873-93.344,93.343S204.53,386.261,256,386.261
	s93.344-41.873,93.344-93.343C349.343,241.45,307.47,199.576,256,199.576z"/>
<path style="fill:#3E3D43;" d="M349.344,292.919c0,51.472-41.872,93.344-93.344,93.344h-0.05V199.576H256
	C307.471,199.576,349.344,241.449,349.344,292.919z"/>
<g>
	<rect x="352.925" y="54.974" style="fill:#FE633E;" width="23.509" height="23.509"/>
	<rect x="309.123" y="54.974" style="fill:#FE633E;" width="23.509" height="23.509"/>
</g>
<rect x="337.042" y="420.039" style="fill:#57555C;" width="55.265" height="37.115"/>
<rect x="363.687" y="420.039" style="fill:#3E3D43;" width="28.62" height="37.115"/>
<g>
</g>
<g>
</g>
<g>
</g>
<g>
</g>
<g>
</g>
<g>
</g>
<g>
</g>
<g>
</g>
<g>
</g>
<g>
</g>
<g>
</g>
<g>
</g>
<g>
</g>
<g>
</g>
<g>
</g>
</svg>
